Coordinates
version=1
nRows=5
nColumns=40
inDegrees=yes

Units are S.I. units (second, meters, Newtons, ...)
Angles are in degrees.

endheader
time	pelvis_tilt	pelvis_list	pelvis_rotation	pelvis_tx	pelvis_ty	pelvis_tz	hip_flexion_r	hip_adduction_r	hip_rotation_r	knee_angle_r	knee_angle_r_beta	ankle_angle_r	subtalar_angle_r	mtp_angle_r	hip_flexion_l	hip_adduction_l	hip_rotation_l	knee_angle_l	knee_angle_l_beta	ankle_angle_l	subtalar_angle_l	mtp_angle_l	lumbar_extension	lumbar_bending	lumbar_rotation	arm_flex_r	arm_add_r	arm_rot_r	elbow_flex_r	pro_sup_r	wrist_flex_r	wrist_dev_r	arm_flex_l	arm_add_l	arm_rot_l	elbow_flex_l	pro_sup_l	wrist_flex_l	wrist_dev_l
     52.77000000	     -2.79540160	     -3.37744704	      1.89138476	      1.04116181	      0.93300423	      0.43264786	     27.07714765	     -7.87046033	     -4.11073022	     61.80594937	     61.80594937	      3.49661871	    -12.79250043	      0.16846230	     13.46052096	     -4.95216297	     -7.16318646	     21.43226430	     21.43226430	     12.21456364	    -10.10160929	     -1.26882922	    -10.09621947	      3.95115151	      1.83758977	      9.79385883	    -12.70120113	      5.86014935	     36.03056889	     45.51247828	      0.00000000	      0.00000000	      7.42506391	    -15.85277237	      2.41339627	     41.35658270	     45.54227789	      0.00000000	      0.00000000
     52.78300000	     -2.70820209	     -3.61915753	      1.56675673	      1.04012798	      0.93371042	      0.43274402	     27.72560704	     -7.55060172	     -3.89222270	     59.97155130	     59.97155130	      3.47860153	    -12.79523382	      0.14261651	     12.78961275	     -5.23761163	     -7.41196255	     21.02953387	     21.02953387	     12.37193382	    -10.02395993	     -1.34717198	    -10.34811911	      4.20936153	      1.58463327	      8.86888636	    -13.28440217	      5.56281900	     35.25437211	     45.55858568	      0.00000000	      0.00000000	      7.74847379	    -16.02881905	      2.38986596	     41.77540971	     45.56183043	      0.00000000	      0.00000000
     52.79600000	     -2.70212865	     -3.87615922	      1.26354876	      1.03908832	      0.93424765	      0.43281443	     28.33619163	     -7.27437697	     -3.82246376	     57.92109640	     57.92109640	      3.35866514	    -12.69245488	      0.19552120	     12.22741944	     -5.51300402	     -7.57786684	     20.65702975	     20.65702975	     12.54881246	    -10.04858759	     -1.39499245	    -10.49265352	      4.46949573	      1.24596950	      7.96884441	    -13.83151598	      5.19563722	     34.56619458	     45.60452433	      0.00000000	      0.00000000	      7.94172529	    -16.26593361	      2.39647402	     42.15879887	     45.57279231	      0.00000000	      0.00000000
     52.80900000	     -2.75233534	     -4.06474488	      0.96903441	      1.03805321	      0.93453436	      0.43290734	     28.88891518	     -7.04348859	     -3.69636718	     55.69432184	     55.69432184	      3.39401393	    -12.53446001	      0.34305031	     11.78662677	     -5.71586394	     -7.75133239	     20.39399096	     20.39399096	     12.70875294	    -10.12178156	     -1.42130659	    -10.54576931	      4.67809946	      0.81332823	      7.07463461	    -14.37520502	      4.91930931	     33.99662819	     45.63913530	      0.00000000	      0.00000000	      8.15864692	    -16.58512916	      2.36896875	     42.45571919	     45.58352950	      0.00000000	      0.00000000
     52.82200000	     -2.64159534	     -4.30613922	      0.64028514	      1.03705490	      0.93509441	      0.43321405	     29.00273509	     -6.66141935	     -3.54879815	     52.93664403	     52.93664403	      2.65739675	    -12.94035345	     -1.48401730	     11.08883115	     -5.98849684	     -7.97672683	     19.96165288	     19.96165288	     12.61771417	    -10.25646689	     -2.01255502	    -10.86610036	      4.92732831	      0.63935294	      6.95781343	    -13.89671580	     -0.07137226	     31.39627815	     46.07559289	      0.00000000	      0.00000000	      7.85639118	    -17.22349569	      3.78489627	     44.74899891	     45.52710038	      0.00000000	      0.00000000
